# xmcd
#
# Track frame offsets:
#	150
#	16877
#	44823
#	59907
#	79100
#
# Disc length: 1316 seconds
#
# Revision: 1
# Processed by: cddbd v1.5.2PL0 Copyright (c) Steve Scherf et al.
# Submitted via: audiograbber 1.83.01
#
DISCID=42052205
DTITLE=Reverend Shine Snake - Belligerant
DYEAR=2010
DGENRE=Bluse
TTITLE0=Belligerent
TTITLE1=Knowone
TTITLE2=Modern Man
TTITLE3=Your Savior
TTITLE4=Lay with me
EXTD=
EXTT0=
EXTT1=
EXTT2=
EXTT3=
EXTT4=
PLAYORDER=
